<svg width="19" height="19" viewBox="0 0 19 19" fill="none" xmlns="http://www.w3.org/2000/svg">
<path d="M9.51073 7.61473V1.10776" stroke="#1098D8" stroke-width="0.8" stroke-miterlimit="10" stroke-linecap="round"/>
<path d="M11.256 2.37906L9.51073 4.23204" stroke="#1098D8" stroke-width="0.8" stroke-miterlimit="10" stroke-linecap="round"/>
<path d="M7.78708 2.37906L9.53232 4.23204" stroke="#1098D8" stroke-width="0.8" stroke-miterlimit="10" stroke-linecap="round"/>
<path d="M8.17496 8.15343L3.58561 3.56407" stroke="#1098D8" stroke-width="0.8" stroke-miterlimit="10" stroke-linecap="round"/>
<path d="M5.69656 3.21941L5.78275 5.76187" stroke="#1098D8" stroke-width="0.8" stroke-miterlimit="10" stroke-linecap="round"/>
<path d="M3.2406 5.67575L5.78306 5.76194" stroke="#1098D8" stroke-width="0.8" stroke-miterlimit="10" stroke-linecap="round"/>
<path d="M7.61477 9.48932H1.1078" stroke="#1098D8" stroke-width="0.8" stroke-miterlimit="10" stroke-linecap="round"/>
<path d="M2.37872 7.74411L4.2317 9.48936" stroke="#1098D8" stroke-width="0.8" stroke-miterlimit="10" stroke-linecap="round"/>
<path d="M2.37872 11.213L4.2317 9.48932" stroke="#1098D8" stroke-width="0.8" stroke-miterlimit="10" stroke-linecap="round"/>
<path d="M8.15377 10.825L3.56441 15.4359" stroke="#1098D8" stroke-width="0.8" stroke-miterlimit="10" stroke-linecap="round"/>
<path d="M3.21941 13.3028L5.76187 13.2166" stroke="#1098D8" stroke-width="0.8" stroke-miterlimit="10" stroke-linecap="round"/>
<path d="M5.67537 15.7591L5.76155 13.2166" stroke="#1098D8" stroke-width="0.8" stroke-miterlimit="10" stroke-linecap="round"/>
<path d="M9.48962 11.4068V17.8922" stroke="#1098D8" stroke-width="0.8" stroke-miterlimit="10" stroke-linecap="round"/>
<path d="M7.74413 16.6426L9.48937 14.7896" stroke="#1098D8" stroke-width="0.8" stroke-miterlimit="10" stroke-linecap="round"/>
<path d="M11.2133 16.6426L9.48962 14.7896" stroke="#1098D8" stroke-width="0.8" stroke-miterlimit="10" stroke-linecap="round"/>
<path d="M10.8253 10.8467L15.4362 15.4576" stroke="#1098D8" stroke-width="0.8" stroke-miterlimit="10" stroke-linecap="round"/>
<path d="M13.3035 15.7807L13.2174 13.2382" stroke="#1098D8" stroke-width="0.8" stroke-miterlimit="10" stroke-linecap="round"/>
<path d="M15.7598 13.3245L13.2174 13.2599" stroke="#1098D8" stroke-width="0.8" stroke-miterlimit="10" stroke-linecap="round"/>
<path d="M11.407 9.51077H17.8924" stroke="#1098D8" stroke-width="0.8" stroke-miterlimit="10" stroke-linecap="round"/>
<path d="M16.6426 11.256L14.7896 9.51077" stroke="#1098D8" stroke-width="0.8" stroke-miterlimit="10" stroke-linecap="round"/>
<path d="M16.6426 7.78706L14.7896 9.53231" stroke="#1098D8" stroke-width="0.8" stroke-miterlimit="10" stroke-linecap="round"/>
<path d="M10.8465 8.17489L15.4574 3.58554" stroke="#1098D8" stroke-width="0.8" stroke-miterlimit="10" stroke-linecap="round"/>
<path d="M15.781 5.6972L13.2386 5.78339" stroke="#1098D8" stroke-width="0.8" stroke-miterlimit="10" stroke-linecap="round"/>
<path d="M13.3242 3.24088L13.2596 5.78334" stroke="#1098D8" stroke-width="0.8" stroke-miterlimit="10" stroke-linecap="round"/>
<path d="M9.51043 10.7389C10.2363 10.7389 10.8247 10.1505 10.8247 9.42458C10.8247 8.6987 10.2363 8.11026 9.51043 8.11026C8.78455 8.11026 8.19611 8.6987 8.19611 9.42458C8.19611 10.1505 8.78455 10.7389 9.51043 10.7389Z" stroke="#1098D8" stroke-width="0.8" stroke-miterlimit="10" stroke-linecap="round"/>
</svg>
