<svg width="14" height="19" viewBox="0 0 14 19" fill="none" xmlns="http://www.w3.org/2000/svg">
<path fill-rule="evenodd" clip-rule="evenodd" d="M11.5323 8.1159H12.1071C13.0053 8.1159 13.7238 8.84638 13.7598 9.72295V17.3564C13.7598 18.2695 13.0412 19 12.1431 19H1.61668C0.718525 19 0 18.2695 0 17.3564V9.75947C0 8.84637 0.718525 8.1159 1.61668 8.1159H2.1915V5.41314C2.1915 2.78342 4.27522 0.665039 6.86191 0.665039C9.4486 0.665039 11.5323 2.78342 11.5323 5.41314V8.1159ZM2.91003 5.41314V8.1159H10.8138V5.41314C10.8138 3.18518 9.05341 1.39552 6.86191 1.39552C4.67041 1.39552 2.91003 3.18518 2.91003 5.41314ZM5.33703 12.7768C5.33703 11.9926 6.03015 11.3391 6.8619 11.3391C7.69364 11.3391 8.38677 11.9926 8.38677 12.803C8.38677 13.2997 8.13724 13.744 7.69364 14.0055V15.1295C7.69364 15.5739 7.33322 15.9137 6.8619 15.9137C6.39057 15.9137 6.03015 15.5477 6.03015 15.1295V13.9793C5.58655 13.7179 5.33703 13.2735 5.33703 12.7768Z" fill="#A0A7C2"/>
</svg>
