<svg width="17" height="17" viewBox="0 0 17 17" fill="none" xmlns="http://www.w3.org/2000/svg">
<path d="M5.1 13.066C4.165 13.066 3.4085 13.7945 3.4085 14.6849C3.4085 15.5754 4.165 16.3039 5.1 16.3039C6.035 16.3039 6.8 15.5754 6.8 14.6849C6.8 13.7945 6.035 13.066 5.1 13.066ZM0 0.113953V1.73295H1.7L4.76 7.87706L3.6125 9.86033C3.4765 10.087 3.4 10.3541 3.4 10.6375C3.4 11.5279 4.165 12.2565 5.1 12.2565H15.3V10.6375H5.457C5.338 10.6375 5.2445 10.5484 5.2445 10.4351L5.27 10.3379L6.035 9.01845H12.3675C13.005 9.01845 13.566 8.68656 13.855 8.18467L16.898 2.93101C16.966 2.81768 17 2.68007 17 2.54245C17 2.09723 16.6175 1.73295 16.15 1.73295H3.5785L2.7795 0.113953H0ZM13.6 13.066C12.665 13.066 11.9085 13.7945 11.9085 14.6849C11.9085 15.5754 12.665 16.3039 13.6 16.3039C14.535 16.3039 15.3 15.5754 15.3 14.6849C15.3 13.7945 14.535 13.066 13.6 13.066Z" fill="#80828E"/>
</svg>
