<svg width="24" height="22" viewBox="0 0 24 22" fill="none" xmlns="http://www.w3.org/2000/svg">
<path d="M16.179 8.23897C15.9929 8.02323 15.8068 7.83831 15.5898 7.62257C14.5044 6.66714 13.109 6.20484 11.6826 6.2973C10.2561 6.38976 8.9227 7.03698 7.9614 8.08487C7.21716 8.91702 6.78303 9.93408 6.65899 11.0436C6.44192 12.8312 7.15514 14.5571 8.58159 15.6975C9.04674 16.0981 9.32582 16.6529 9.32582 17.2693V20.8444C9.32582 21.0294 9.48087 21.2143 9.69794 21.2143H14.3184C14.5044 21.2143 14.6905 21.0602 14.6905 20.8444V17.3618C14.6905 16.7453 14.9386 16.1906 15.4037 15.7899C16.5201 14.8961 17.2333 13.6017 17.3573 12.184C17.4814 10.7662 17.0782 9.3485 16.179 8.23897ZM10.039 17.9165C10.039 17.8549 10.1011 17.7932 10.1631 17.7932H13.7912C13.8532 17.7932 13.9153 17.8549 13.9153 17.9165V20.3513C13.9153 20.413 13.8532 20.4746 13.7912 20.4746H10.1941C10.1321 20.4746 10.0701 20.413 10.0701 20.3513V17.9165H10.039Z" fill="#A0A7C2"/>
<path d="M11.9814 3.87832C12.2033 3.87832 12.3512 3.70671 12.3512 3.5351V0.343214C12.3512 0.137285 12.1663 0 11.9814 0C11.7595 0 11.6116 0.171607 11.6116 0.343214V3.50078C11.6116 3.74103 11.7965 3.87832 11.9814 3.87832Z" fill="#A0A7C2"/>
<path d="M4.17874 11.1202C4.17874 10.9142 3.99384 10.7769 3.80894 10.7769H0.3698C0.14792 10.7769 0 10.9485 0 11.1202C0 11.3261 0.1849 11.4634 0.3698 11.4634H3.80894C4.03082 11.4977 4.17874 11.3261 4.17874 11.1202Z" fill="#A0A7C2"/>
<path d="M23.5932 10.7769H20.1541C19.9322 10.7769 19.7843 10.9485 19.7843 11.1202C19.7843 11.3261 19.9692 11.4634 20.1541 11.4634H23.5932C23.8151 11.4634 23.963 11.2918 23.963 11.1202C24 10.9485 23.8151 10.7769 23.5932 10.7769Z" fill="#A0A7C2"/>
<path d="M5.95394 16.234L3.55024 18.4649C3.40232 18.6022 3.40232 18.8425 3.55024 18.9798C3.6242 19.0484 3.73514 19.0827 3.8091 19.0827C3.92004 19.0827 3.994 19.0484 4.06796 18.9798L6.47166 16.7489C6.61958 16.6116 6.61958 16.3713 6.47166 16.234C6.36072 16.0968 6.10186 16.0968 5.95394 16.234Z" fill="#A0A7C2"/>
<path d="M17.7873 6.10914C17.8982 6.10914 17.9722 6.07482 18.0462 6.00618L20.4499 3.77529C20.5978 3.63801 20.5978 3.39776 20.4499 3.26047C20.3019 3.12319 20.0431 3.12319 19.8952 3.26047L17.4915 5.49136C17.3435 5.62865 17.3435 5.8689 17.4915 6.00618C17.5654 6.07482 17.6764 6.10914 17.7873 6.10914Z" fill="#A0A7C2"/>
<path d="M5.95373 6.0405C6.02769 6.10915 6.13863 6.14347 6.21259 6.14347C6.32353 6.14347 6.39749 6.10915 6.47145 6.0405C6.61937 5.90322 6.61937 5.66297 6.47145 5.52568L4.06775 3.26047C3.91983 3.12319 3.66097 3.12319 3.51305 3.26047C3.36513 3.39776 3.36513 3.63801 3.51305 3.77529L5.95373 6.0405Z" fill="#A0A7C2"/>
<path d="M18.0462 16.234C17.8982 16.0968 17.6394 16.0968 17.4915 16.234C17.3435 16.3713 17.3435 16.6116 17.4915 16.7489L19.8952 18.9798C19.9691 19.0484 20.0801 19.0827 20.154 19.0827C20.228 19.0827 20.3389 19.0484 20.4129 18.9798C20.5608 18.8425 20.5608 18.6022 20.4129 18.4649L18.0462 16.234Z" fill="#A0A7C2"/>
</svg>
