<svg width="26" height="21" viewBox="0 0 26 21" fill="none" xmlns="http://www.w3.org/2000/svg">
<path d="M21.9601 5.18642C21.6908 2.7686 19.5368 0.913055 16.9042 0.913055C15.1091 0.913055 13.4936 1.7846 12.5662 3.21842C12.3269 3.13408 12.0576 3.10597 11.7884 3.10597C11.0704 3.10597 10.4122 3.35899 9.93354 3.78071C9.63437 3.72448 9.36512 3.72448 9.09587 3.72448C6.46319 3.72448 4.30918 5.58002 4.03993 7.99784C2.21501 8.41956 0.928585 9.96584 0.928585 11.7652C0.928585 13.9299 2.78343 15.673 5.08702 15.673C5.35627 15.673 5.53577 15.4762 5.53577 15.2513C5.53577 15.0264 5.32635 14.8296 5.08702 14.8296C3.29201 14.8296 1.85601 13.452 1.85601 11.7933C1.85601 10.3032 2.99284 9.03807 4.54852 8.78504C4.63827 8.75693 4.84769 8.78504 4.90752 8.72881C4.96735 8.67259 4.90752 8.47579 4.90752 8.36333C4.99727 6.22665 6.8222 4.56791 9.09587 4.56791C10.6815 4.56791 12.1175 5.38322 12.8056 6.7327C12.8654 6.81705 12.8953 7.07007 13.015 7.1263C13.1346 7.15442 13.3141 6.98573 13.4338 6.9295C13.6731 6.81705 13.9424 6.76082 14.2416 6.76082C15.1989 6.76082 16.0067 7.46367 16.0665 8.39144C16.0665 8.47579 16.0366 8.67259 16.0964 8.72881C16.1562 8.78504 16.3657 8.78504 16.4554 8.78504C17.9512 9.06618 19.0282 10.3313 19.0282 11.7652C19.0282 13.452 17.5623 14.8015 15.7972 14.8015C15.5579 14.8296 15.3784 14.9983 15.3784 15.2232C15.3784 15.4481 15.5579 15.6449 15.7972 15.6449C18.0709 15.6168 19.9557 13.8737 19.9557 11.737C19.9557 9.99396 18.7291 8.47579 16.964 7.99784C16.7247 6.78893 15.5878 5.88928 14.2416 5.88928C13.9723 5.88928 13.7031 5.91739 13.4637 6.00173C12.8953 5.13019 12.0876 4.48356 11.1003 4.08996C11.3097 4.00562 11.549 3.97751 11.7884 3.97751C12.0576 3.97751 12.3269 4.03374 12.5961 4.14619C12.6859 4.20242 12.8953 4.37111 13.015 4.34299C13.1346 4.31488 13.1646 4.06185 13.2244 3.94939C13.9424 2.62802 15.3485 1.7846 16.9341 1.7846C19.1479 1.7846 20.9728 3.44334 21.0626 5.55191C21.0626 5.63625 21.0028 5.83305 21.0626 5.91739C21.1224 5.97362 21.3318 5.97362 21.4216 5.97362C22.9773 6.22665 24.1141 7.49179 24.1141 8.98184C24.1141 10.6687 22.6781 12.0182 20.8831 12.0182C20.6138 12.0182 20.4343 12.215 20.4343 12.4399C20.4343 12.6929 20.6438 12.8616 20.8831 12.8616C23.1867 12.8616 25.0415 11.1185 25.0415 8.95373C25.0714 7.18253 23.785 5.63625 21.9601 5.18642Z" fill="#A0A7C2" stroke="#A0A7C2" stroke-width="0.3"/>
<path d="M13.7025 16.713C15.1385 18.4842 14.8991 18.9622 14.8991 18.9622C14.8991 19.5807 14.3606 20.0868 13.7025 20.0868C13.0443 20.0868 12.5058 19.5807 12.5058 18.9622C12.5058 18.9622 12.2665 18.4842 13.7025 16.713Z" fill="#A0A7C2" stroke="#A0A7C2" stroke-width="0.3"/>
<path d="M7.15113 16.713C8.58714 18.4842 8.3478 18.9622 8.3478 18.9622C8.3478 19.5807 7.8093 20.0868 7.15113 20.0868C6.49296 20.0868 5.95446 19.5807 5.95446 18.9622C5.95446 18.9622 5.71512 18.4842 7.15113 16.713Z" fill="#A0A7C2" stroke="#A0A7C2" stroke-width="0.3"/>
<path d="M10.4425 14.0142C11.8785 15.7854 11.6392 16.2633 11.6392 16.2633C11.6392 16.8818 11.1007 17.3879 10.4425 17.3879C9.78435 17.3879 9.24585 16.8818 9.24585 16.2633C9.21593 16.2633 8.9766 15.7854 10.4425 14.0142Z" fill="#A0A7C2" stroke="#A0A7C2" stroke-width="0.3"/>
</svg>
