<svg width="16" height="16" viewBox="0 0 16 16" fill="none" xmlns="http://www.w3.org/2000/svg">
<path fill-rule="evenodd" clip-rule="evenodd" d="M14.7474 13.9773H14.1342V0.309233C14.1342 0.154617 14.0116 0 13.8276 0H1.19574C1.04244 0 0.889138 0.123693 0.889138 0.309233V13.9773H0.306599C0.1533 13.9773 0 14.101 0 14.2866V15.6908C0 15.8454 0.12264 16 0.306599 16H14.7474C14.9007 16 15.054 15.8763 15.054 15.6908V14.2556C15.054 14.101 14.9007 13.9773 14.7474 13.9773ZM2.15056 1.43375H7.16857V7.16862H2.15056V1.43375ZM12.9034 1.43375H7.8854V7.16862H12.9034V1.43375ZM2.15056 7.88546H7.16857V12.9035H2.15056V7.88546ZM12.9034 7.88546H7.8854V12.9035H12.9034V7.88546Z" fill="#A0A7C2"/>
</svg>
