<svg width="17" height="18" viewBox="0 0 17 18" fill="none" xmlns="http://www.w3.org/2000/svg">
<path d="M10.8772 12.7877C10.8772 11.0871 9.94952 9.43067 8.44202 8.4589L8.39563 8.43681V2.87117C8.39563 1.23681 7.14325 0 5.4502 0C3.75716 0 2.4352 1.2589 2.4352 2.87117V8.43681L2.38881 8.4589C0.88131 9.47485 0 11.0429 0 12.7877C0 15.7031 2.41201 18 5.4734 18C6.93452 18 8.34925 17.4258 9.36971 16.4319C10.3902 15.4601 10.9004 14.1571 10.8772 12.7877ZM5.4734 16.7411C3.20055 16.7411 1.41473 15.0405 1.41473 12.8761C1.41473 11.4405 2.18008 10.1816 3.52524 9.47485C3.68759 9.36442 3.87312 9.18773 3.87312 8.85644V2.87117C3.87312 2.0319 4.59209 1.34724 5.4734 1.34724C6.30832 1.34724 6.9809 1.98773 7.07367 2.87117V8.85644C7.07367 9.16564 7.25921 9.36442 7.42156 9.47485C8.72033 10.1595 9.53206 11.4626 9.53206 12.8761C9.53206 15.0405 7.74625 16.7411 5.4734 16.7411Z" fill="#A0A7C2"/>
<path d="M17 2.1201C17 2.51764 16.7217 2.78267 16.281 2.78267H13.7298C13.2892 2.78267 13.0109 2.51764 13.0109 2.1201C13.0109 1.70046 13.2892 1.45752 13.7298 1.45752H16.281C16.7217 1.43543 17 1.70046 17 2.1201Z" fill="#A0A7C2"/>
<path d="M17.0001 5.36694C17.0001 5.76449 16.7218 6.02952 16.2811 6.02952H12.5471C12.1297 6.02952 11.8514 5.76449 11.8514 5.36694C11.8514 4.94731 12.1297 4.68228 12.5471 4.68228H16.2811C16.7218 4.70437 17.0001 4.9694 17.0001 5.36694Z" fill="#A0A7C2"/>
<path d="M17 8.61352C17 9.01107 16.7217 9.2761 16.281 9.2761H13.7298C13.2892 9.2761 13.0109 9.01107 13.0109 8.61352C13.0109 8.19389 13.2892 7.92886 13.7298 7.92886H16.281C16.7217 7.95095 17 8.21598 17 8.61352Z" fill="#A0A7C2"/>
<path d="M17.0001 11.8822C17.0001 12.3018 16.7218 12.5668 16.2811 12.5668H12.5471C12.1297 12.5668 11.8514 12.3018 11.8514 11.8822C11.8514 11.4846 12.1297 11.2196 12.5471 11.2196H16.2811C16.7218 11.1975 17.0001 11.4625 17.0001 11.8822Z" fill="#A0A7C2"/>
<path d="M17 15.129C17 15.5486 16.7217 15.7916 16.281 15.7916H13.7298C13.2892 15.7916 13.0109 15.5265 13.0109 15.129C13.0109 14.7094 13.2892 14.4443 13.7298 14.4443H16.281C16.7217 14.4664 17 14.7315 17 15.129Z" fill="#A0A7C2"/>
</svg>
