<svg width="13" height="19" viewBox="0 0 13 19" fill="none" xmlns="http://www.w3.org/2000/svg">
<g clip-path="url(#clip0)">
<path fill-rule="evenodd" clip-rule="evenodd" d="M11.7044 2.37129V12.7754C12.534 13.4275 13.0317 14.4056 12.9985 15.4431C12.9985 16.4805 12.534 17.429 11.6712 18.1108C10.9411 18.6739 9.97882 19 9.01649 19C8.85057 19 8.71783 19 8.55192 18.9704C6.79317 18.7925 5.36627 17.5772 5.1008 16.0062C4.9017 14.791 5.36627 13.5757 6.39497 12.7754V2.37129C6.39497 1.06708 7.58959 0 9.04967 0C10.5098 0 11.7044 1.06708 11.7044 2.37129ZM9.55873 7.97379V13.7673C10.2087 13.9542 10.7058 14.5148 10.7058 15.225C10.7058 16.0473 10.0176 16.72 9.17638 16.72C8.3352 16.72 7.64697 16.0473 7.64697 15.225C7.64697 14.5148 8.14403 13.9168 8.79403 13.7673V7.97379C8.79403 7.74953 8.94697 7.60003 9.17638 7.60003C9.40579 7.60003 9.55873 7.74953 9.55873 7.97379Z" fill="#1098D8"/>
<path d="M3.29303 2.58271H0.299367C0.119747 2.58271 0 2.70146 0 2.87958C0 3.05771 0.119747 3.17646 0.299367 3.17646H3.29303C3.47265 3.17646 3.5924 3.05771 3.5924 2.87958C3.5924 2.70146 3.47265 2.58271 3.29303 2.58271Z" fill="#1098D8"/>
<path d="M3.29303 5.25458H0.299367C0.119747 5.25458 0 5.37333 0 5.55146C0 5.72958 0.119747 5.84833 0.299367 5.84833H3.29303C3.47265 5.84833 3.5924 5.72958 3.5924 5.55146C3.5924 5.37333 3.47265 5.25458 3.29303 5.25458Z" fill="#1098D8"/>
<path d="M3.29303 7.92646H0.299367C0.119747 7.92646 0 8.04521 0 8.22333C0 8.40146 0.119747 8.52021 0.299367 8.52021H3.29303C3.47265 8.52021 3.5924 8.40146 3.5924 8.22333C3.5924 8.04521 3.47265 7.92646 3.29303 7.92646Z" fill="#1098D8"/>
<path d="M3.29303 10.5688H0.299367C0.119747 10.5688 0 10.6876 0 10.8657C0 11.0438 0.119747 11.1626 0.299367 11.1626H3.29303C3.47265 11.1626 3.5924 11.0438 3.5924 10.8657C3.5924 10.6876 3.47265 10.5688 3.29303 10.5688Z" fill="#1098D8"/>
</g>
<defs>
<clipPath id="clip0">
<rect width="13" height="19" fill="white"/>
</clipPath>
</defs>
</svg>
